<svg width="18" height="18" viewBox="0 0 18 18" fill="#fff" xmlns="http://www.w3.org/2000/svg">
<path d="M9 18C8.23506 18 7.85259 17.6056 7.85259 16.8167V10.004H1.14741C0.38247 10.004 0 9.63347 0 8.89243C0 8.15139 0.38247 7.78088 1.14741 7.78088H7.85259V1.18327C7.85259 0.394422 8.23506 0 9 0C9.76494 0 10.1474 0.394422 10.1474 1.18327V7.78088H16.8526C17.6175 7.78088 18 8.15139 18 8.89243C18 9.63347 17.6175 10.004 16.8526 10.004H10.1474V16.8167C10.1474 17.6056 9.76494 18 9 18Z" fill="white"/>
</svg>
