<svg width="28" height="23" viewBox="0 0 28 23" fill="none" xmlns="http://www.w3.org/2000/svg">
<path fill-rule="evenodd" clip-rule="evenodd" d="M19.6084 3.96304H23.9783C24.9123 3.96304 25.8081 4.33408 26.4685 4.99454C27.129 5.65499 27.5 6.55076 27.5 7.48478V18.8805C27.5 19.8146 27.129 20.7103 26.4685 21.3708C25.8081 22.0312 24.9123 22.4023 23.9783 22.4023H4.02174C3.08772 22.4023 2.19195 22.0312 1.53149 21.3708C0.871039 20.7103 0.5 19.8146 0.5 18.8805V7.48478C0.5 6.55076 0.871039 5.65499 1.53149 4.99454C2.19195 4.33408 3.08772 3.96304 4.02174 3.96304H8.39163L8.82304 2.26087C8.95322 1.7567 9.2473 1.31011 9.65904 0.991345C10.0708 0.672583 10.5768 0.499738 11.0975 0.5H16.9025C17.4232 0.499738 17.9292 0.672583 18.341 0.991345C18.7527 1.31011 19.0468 1.7567 19.177 2.26087L19.6084 3.96304ZM24.8083 19.7136C25.0285 19.4934 25.1522 19.1948 25.1522 18.8835V7.48478C25.1522 7.17344 25.0285 6.87485 24.8083 6.6547C24.5882 6.43455 24.2896 6.31087 23.9783 6.31087H18.6957C18.435 6.31133 18.1817 6.22506 17.9755 6.06565C17.7694 5.90624 17.6221 5.68277 17.557 5.43044L16.9025 2.84489H11.0975L10.443 5.43044C10.3779 5.68277 10.2306 5.90624 10.0245 6.06565C9.8183 6.22506 9.56495 6.31133 9.30435 6.31087H4.02174C3.7104 6.31087 3.41181 6.43455 3.19166 6.6547C2.97151 6.87485 2.84783 7.17344 2.84783 7.48478V18.8835C2.84783 19.1948 2.97151 19.4934 3.19166 19.7136C3.41181 19.9337 3.7104 20.0574 4.02174 20.0574H23.9783C24.2896 20.0574 24.5882 19.9337 24.8083 19.7136ZM11.1732 8.50978C12.0365 7.93291 13.0516 7.625 14.0899 7.625C15.4819 7.62623 16.8166 8.17974 17.8009 9.16404C18.7852 10.1483 19.3387 11.483 19.3399 12.875C19.3399 13.9134 19.032 14.9284 18.4551 15.7917C17.8783 16.6551 17.0583 17.328 16.099 17.7254C15.1397 18.1227 14.0841 18.2267 13.0657 18.0241C12.0473 17.8215 11.1118 17.3215 10.3776 16.5873C9.64339 15.8531 9.14337 14.9176 8.9408 13.8992C8.73823 12.8808 8.8422 11.8252 9.23956 10.8659C9.63692 9.9066 10.3098 9.08666 11.1732 8.50978ZM12.2011 15.7018C12.7602 16.0754 13.4175 16.2748 14.0899 16.2748C14.9914 16.2742 15.8558 15.9158 16.4933 15.2783C17.1307 14.6409 17.4891 13.7765 17.4897 12.875C17.4897 12.2026 17.2903 11.5453 16.9167 10.9862C16.5432 10.4271 16.0122 9.99133 15.391 9.73401C14.7697 9.47669 14.0861 9.40936 13.4267 9.54055C12.7672 9.67173 12.1614 9.99552 11.6859 10.471C11.2104 10.9465 10.8866 11.5522 10.7555 12.2117C10.6243 12.8712 10.6916 13.5548 10.9489 14.176C11.2063 14.7973 11.642 15.3282 12.2011 15.7018Z" fill="white"/>
</svg>
