<svg width="12" height="12" viewBox="0 0 12 12" fill="none" xmlns="http://www.w3.org/2000/svg">
<path d="M0.805819 0.924571L0.861278 0.861766C1.1016 0.621444 1.47975 0.602957 1.74128 0.806307L1.80409 0.861766L5.99935 5.0565L10.1946 0.861766C10.455 0.601417 10.8771 0.601417 11.1374 0.861766C11.3978 1.12212 11.3978 1.54423 11.1374 1.80457L6.94268 5.99984L11.1374 10.1951C11.3777 10.4354 11.3962 10.8136 11.1929 11.0751L11.1374 11.1379C10.8971 11.3782 10.5189 11.3967 10.2574 11.1934L10.1946 11.1379L5.99935 6.94317L1.80409 11.1379C1.54374 11.3983 1.12163 11.3983 0.861278 11.1379C0.600928 10.8776 0.600928 10.4554 0.861278 10.1951L5.05602 5.99984L0.861278 1.80457C0.620955 1.56425 0.602469 1.1861 0.805819 0.924571L0.861278 0.861766L0.805819 0.924571Z" fill="#F6F6F6"/>
</svg>
