<svg viewBox="0 0 14 16" fill="none" xmlns="http://www.w3.org/2000/svg">
<path d="M3.69083 1.16295e-08C3.52749 3.1748e-05 3.37086 0.0649295 3.25537 0.18042C3.13989 0.29591 3.07501 0.452535 3.07501 0.615847C3.07501 0.779159 3.13989 0.935784 3.25537 1.05127C3.37086 1.16676 3.52749 1.23166 3.69083 1.23169H9.84662C9.92751 1.23171 10.0076 1.21579 10.0824 1.18485C10.1571 1.15391 10.225 1.10855 10.2822 1.05136C10.3394 0.994171 10.3848 0.926275 10.4158 0.851549C10.4467 0.776823 10.4627 0.696731 10.4627 0.615847C10.4627 0.534963 10.4467 0.454871 10.4158 0.380145C10.3848 0.305419 10.3394 0.237523 10.2822 0.180335C10.225 0.123147 10.1571 0.0777864 10.0824 0.0468442C10.0076 0.015902 9.92751 -1.57066e-05 9.84662 1.16295e-08H3.69083ZM0.923007 2.46219C0.411663 2.46219 0 2.87378 0 3.38505C0 3.89633 0.411663 4.30792 0.923008 4.30792H1.22948V14.1507C1.22948 15.1626 2.06584 16 3.07789 16H10.4596C11.4716 16 12.308 15.1626 12.308 14.1507V4.30792H12.6144C13.1258 4.30792 13.5374 3.89633 13.5374 3.38505C13.5374 2.87378 13.1258 2.46219 12.6144 2.46219H0.923007ZM4.9179 7.38295V7.38418C5.26481 7.37951 5.54653 7.66342 5.54045 8.01024V13.5463C5.52277 14.3486 4.32755 14.3486 4.30977 13.5463V8.01024C4.30396 7.69358 4.53955 7.42425 4.8542 7.38779C4.87537 7.38544 4.8966 7.38293 4.9179 7.38293L4.9179 7.38295ZM8.60633 7.38295V7.38418C8.95324 7.37951 9.23496 7.66342 9.22887 8.01024V13.5463C9.22887 14.3674 7.997 14.3674 7.997 13.5463V8.01024C7.99121 7.69318 8.2275 7.42369 8.54263 7.38779C8.56379 7.38544 8.58503 7.38293 8.60633 7.38293L8.60633 7.38295Z" fill="#DB4141"/>
</svg>
