<svg viewBox="0 0 9 9" fill="none" xmlns="http://www.w3.org/2000/svg">
<path d="M6.66672 5.18188L8.57529 5.18188C8.81781 5.18188 8.99058 4.98956 8.96812 4.74923L8.98828 0.999667C8.98828 0.988789 8.98778 0.978309 8.98628 0.96733C8.95265 0.718217 8.7227 0.515514 8.47329 0.515514L6.03725 0.515514C5.79942 0.515514 5.63095 0.701052 5.64552 0.934894L6.17409 4.84085C6.17678 4.83985 6.17928 4.83876 6.18177 4.83786C6.25722 5.03487 6.45484 5.18188 6.66672 5.18188Z" fill="#DB4141"/>
<path d="M0.364267 4.2026C0.223443 4.3028 0.139506 4.44852 0.121541 4.63216C0.0974881 4.87788 0.161763 5.26343 0.420557 5.54238C0.551501 5.6831 0.786142 5.85078 1.15961 5.85078L2.89671 5.85078C2.90011 6.10228 2.90011 6.49651 2.88204 6.84663C2.85539 7.35194 3.13814 7.96823 3.41769 8.2914C3.56471 8.46177 3.71371 8.55718 3.86103 8.57535C3.90833 8.58123 3.95714 8.58423 4.00684 8.58423C4.32711 8.58423 4.70577 8.45628 4.77963 8.17543C4.81217 8.05337 4.78192 7.92442 4.74949 7.78849C4.70707 7.60754 4.65338 7.38248 4.70947 7.06819C4.80428 6.53464 5.6102 5.24496 5.87109 5.00812L5.32746 0.990184C4.96966 0.851356 4.14258 0.549147 3.70803 0.549147L1.53518 0.549147C1.38736 0.549147 0.893032 0.581384 0.744323 0.996971C0.673162 1.19718 0.700209 1.38601 0.769474 1.54709C0.770272 1.56276 0.770871 1.57614 0.77127 1.58512C0.77127 1.58851 0.77177 1.59241 0.77187 1.5964C0.500501 1.66886 0.324843 1.8494 0.278234 2.11678C0.222144 2.43965 0.319155 2.66301 0.416564 2.79765C0.129426 2.93149 -0.0206799 3.19986 0.00976042 3.56245C0.0338135 3.846 0.177332 4.05399 0.364267 4.2026Z" fill="#DB4141"/>
</svg>
