<svg viewBox="0 0 25 20" fill="none" xmlns="http://www.w3.org/2000/svg">
<path d="M15.6673 11.0009L13.7915 8.36462C13.6395 8.16184 13.3606 8.13649 13.1832 8.31393L12.1185 9.35322C11.9411 9.53066 11.6623 9.50531 11.5102 9.30252L8.87393 5.77907C8.69649 5.55094 8.36696 5.57628 8.21487 5.80442L3.90562 12.6232C3.72818 12.8767 3.93096 13.2315 4.26049 13.2315H14.0704C14.4253 12.3697 14.9829 11.6092 15.6673 11.0009Z" fill="#34558B"/>
<path d="M14.3979 6.56535C15.2239 6.56535 15.8935 5.89576 15.8935 5.06978C15.8935 4.24381 15.2239 3.57422 14.3979 3.57422C13.5719 3.57422 12.9023 4.24381 12.9023 5.06978C12.9023 5.89576 13.5719 6.56535 14.3979 6.56535Z" fill="#34558B"/>
<path d="M20.8112 11.0266V0.659062C20.8112 0.304183 20.5323 0 20.1521 0H0.659062C0.304182 0 0 0.278834 0 0.659062V16.0456C0 16.4005 0.304182 16.7047 0.659062 16.7047H15.1077C15.6654 18.6058 17.4144 20 19.493 20C22.0279 20 24.0811 17.9468 24.0811 15.4119C24.0811 13.3333 22.6869 11.5843 20.8112 11.0266ZM1.29278 1.31812H19.493V10.8492C16.9582 10.8492 14.9049 12.9024 14.9049 15.4373H1.29278V1.31812ZM19.493 18.7072C17.6933 18.7072 16.1977 17.237 16.1977 15.4119C16.1977 13.6122 17.6679 12.1166 19.493 12.1166C21.2928 12.1166 22.7883 13.5868 22.7883 15.4119C22.7883 17.237 21.3181 18.7072 19.493 18.7072Z" fill="#34558B"/>
<path d="M20.887 14.7787L19.8984 13.4606C19.797 13.3339 19.645 13.2578 19.4929 13.2578C19.3408 13.2578 19.1887 13.3339 19.0873 13.4606L18.0987 14.7787C17.9719 14.9308 17.9719 15.1336 18.048 15.311C18.124 15.4885 18.3015 15.5899 18.5043 15.5899H18.9098V17.0854C18.9098 17.415 19.1633 17.6685 19.4929 17.6685C19.8224 17.6685 20.0759 17.415 20.0759 17.0854V15.5899H20.4815C20.6842 15.5899 20.8363 15.4885 20.9377 15.311C21.0391 15.1336 21.0138 14.9308 20.887 14.7787Z" fill="#34558B"/>
</svg>
