<svg viewBox="0 0 9 9" fill="none" xmlns="http://www.w3.org/2000/svg">
<path d="M2.32937 3.91797H0.420805C0.178279 3.91797 0.00551701 4.11029 0.0279731 4.35062L0.0078125 8.10019C0.0078125 8.11106 0.00831152 8.12154 0.00980859 8.13252C0.0434428 8.38164 0.273393 8.58434 0.522805 8.58434H2.95884C3.19667 8.58434 3.36514 8.3988 3.35057 8.16496L2.82201 4.259C2.81931 4.26 2.81682 4.2611 2.81432 4.262C2.73887 4.06498 2.54126 3.91797 2.32937 3.91797Z" fill="#95BC6B"/>
<path d="M8.63183 4.89725C8.77265 4.79705 8.85659 4.65133 8.87455 4.46769C8.89861 4.22197 8.83433 3.83643 8.57554 3.55747C8.44459 3.41675 8.20995 3.24908 7.83648 3.24908H6.09938C6.09599 2.99757 6.09599 2.60334 6.11405 2.25323C6.1407 1.74791 5.85795 1.13162 5.5784 0.808452C5.43139 0.638085 5.28238 0.542672 5.13507 0.524508C5.08776 0.518619 5.03896 0.515625 4.98925 0.515625C4.66898 0.515625 4.29032 0.643575 4.21646 0.924425C4.18393 1.04649 4.21417 1.17543 4.24661 1.31137C4.28902 1.49231 4.34272 1.71737 4.28663 2.03166C4.19181 2.56522 3.38589 3.85489 3.125 4.09173L3.66864 8.10967C4.02644 8.2485 4.85352 8.55071 5.28807 8.55071H7.46092C7.60873 8.55071 8.10306 8.51847 8.25177 8.10288C8.32293 7.90267 8.29588 7.71384 8.22662 7.55276C8.22582 7.53709 8.22522 7.52372 8.22482 7.51473C8.22482 7.51134 8.22432 7.50745 8.22422 7.50346C8.49559 7.431 8.67125 7.25045 8.71786 6.98307C8.77395 6.6602 8.67694 6.43684 8.57953 6.30221C8.86667 6.16837 9.01677 5.89999 8.98633 5.5374C8.96228 5.25386 8.81876 5.04586 8.63183 4.89725Z" fill="#95BC6B"/>
</svg>
