<svg viewBox="0 0 19 22" fill="none" xmlns="http://www.w3.org/2000/svg">
<path d="M10.6176 4.49657L12.1798 2.75399C12.5732 2.31502 12.5273 1.64524 12.0765 1.26086C11.8579 1.07533 11.577 0.984782 11.2897 1.00209C11.0005 1.02117 10.736 1.149 10.5456 1.36161L7.09103 5.21428C7.02456 5.28841 7.01454 5.39582 7.06599 5.48015L9.75564 9.87477C10.0621 10.3759 10.7296 10.5401 11.2441 10.2414C11.4927 10.0962 11.669 9.86545 11.74 9.59159C11.811 9.31773 11.7682 9.03321 11.6198 8.79087L10.2706 6.58668C11.9212 6.78331 13.4329 7.60666 14.4706 8.88763C15.5188 10.1815 15.9869 11.7953 15.7897 13.4323C15.5921 15.0692 14.7525 16.5335 13.4256 17.5548C12.0988 18.5761 10.4432 19.0319 8.76347 18.8402C7.08375 18.6476 5.58206 17.8291 4.53434 16.5357C2.37151 13.865 2.84004 9.97729 5.57933 7.86854C5.80973 7.69144 5.95543 7.43755 5.99004 7.15349C6.02419 6.86942 5.94269 6.5889 5.76101 6.36475C5.4532 5.98481 4.91955 5.85343 4.46376 6.04518C4.44691 6.05228 4.43143 6.06116 4.41686 6.07181C2.59735 7.39583 1.41576 9.33148 1.08974 11.5224C0.76372 13.7128 1.33243 15.8957 2.69115 17.6693C4.04941 19.443 6.03511 20.5948 8.28218 20.9126C8.69608 20.9712 9.10952 21 9.52069 21C11.3402 21 13.1042 20.4319 14.5881 19.3515C18.3441 16.6183 19.1182 11.4154 16.3143 7.75402C14.9396 5.95907 12.8824 4.78818 10.6176 4.49657Z" fill="#7FB5F1" stroke="white" stroke-width="0.5"/>
</svg>
