<svg width="32" height="32" viewBox="0 0 32 32" fill="none" xmlns="http://www.w3.org/2000/svg">
<g filter="url(#filter0_d)">
<path d="M24.4146 3.44458C29.1396 8.09181 29.2027 15.6895 24.5554 20.4146C19.9082 25.1396 12.3105 25.2027 7.58545 20.5554C2.86042 15.9082 2.79735 8.31047 7.44458 3.58545C12.0918 -1.13958 19.6895 -1.20265 24.4146 3.44458Z" fill="#7FB5F1"/>
</g>
<path d="M16.8933 6.79725L18.1431 5.40319C18.4578 5.05201 18.421 4.51619 18.0604 4.20869C17.8856 4.06026 17.6608 3.98783 17.4309 4.00167C17.1996 4.01694 16.988 4.1192 16.8357 4.28929L14.072 7.37142C14.0189 7.43073 14.0109 7.51665 14.052 7.58412L16.2037 11.0998C16.4489 11.5007 16.9829 11.6321 17.3945 11.3931C17.5934 11.277 17.7344 11.0924 17.7912 10.8733C17.848 10.6542 17.8138 10.4266 17.695 10.2327L16.6157 8.46935C17.9362 8.62665 19.1456 9.28533 19.9757 10.3101C20.8143 11.3452 21.1887 12.6363 21.031 13.9458C20.8729 15.2554 20.2012 16.4268 19.1397 17.2438C18.0783 18.0609 16.7538 18.4256 15.41 18.2722C14.0662 18.1181 12.8649 17.4633 12.0267 16.4286C10.2964 14.292 10.6713 11.1818 12.8627 9.49483C13.047 9.35315 13.1636 9.15004 13.1912 8.92279C13.2186 8.69553 13.1534 8.47112 13.008 8.2918C12.7618 7.98785 12.3349 7.88275 11.9702 8.03614C11.9567 8.04182 11.9444 8.04893 11.9327 8.05745C10.4771 9.11666 9.53183 10.6652 9.27101 12.4179C9.01019 14.1702 9.46516 15.9165 10.5521 17.3354C11.6387 18.7544 13.2273 19.6758 15.025 19.93C15.3561 19.9769 15.6868 20 16.0158 20C17.4714 20 18.8826 19.5455 20.0697 18.6812C23.0745 16.4946 23.6938 12.3323 21.4506 9.40321C20.3509 7.96726 18.7052 7.03054 16.8933 6.79725Z" fill="white" stroke="#7FB5F1" stroke-width="0.5"/>
<defs>
<filter id="filter0_d" x="0" y="0" width="32" height="32" filterUnits="userSpaceOnUse" color-interpolation-filters="sRGB">
<feFlood flood-opacity="0" result="BackgroundImageFix"/>
<feColorMatrix in="SourceAlpha" type="matrix" values="0 0 0 0 0 0 0 0 0 0 0 0 0 0 0 0 0 0 127 0" result="hardAlpha"/>
<feOffset dy="4"/>
<feGaussianBlur stdDeviation="2"/>
<feComposite in2="hardAlpha" operator="out"/>
<feColorMatrix type="matrix" values="0 0 0 0 0 0 0 0 0 0 0 0 0 0 0 0 0 0 0.15 0"/>
<feBlend mode="normal" in2="BackgroundImageFix" result="effect1_dropShadow"/>
<feBlend mode="normal" in="SourceGraphic" in2="effect1_dropShadow" result="shape"/>
</filter>
</defs>
</svg>
