<svg viewBox="0 0 16 16" fill="none" xmlns="http://www.w3.org/2000/svg">
<path d="M6.48649 0C10.0689 0 12.973 2.9041 12.973 6.48649C12.973 7.96553 12.4779 9.32896 11.6445 10.4201L15.7467 14.5236C16.0844 14.8613 16.0844 15.4089 15.7467 15.7467C15.4349 16.0585 14.9443 16.0824 14.6051 15.8186L14.5236 15.7467L10.4201 11.6445C9.32896 12.4779 7.96553 12.973 6.48649 12.973C2.9041 12.973 0 10.0689 0 6.48649C0 2.9041 2.9041 0 6.48649 0ZM6.48649 1.72973C3.8594 1.72973 1.72973 3.8594 1.72973 6.48649C1.72973 9.11357 3.8594 11.2432 6.48649 11.2432C9.11357 11.2432 11.2432 9.11357 11.2432 6.48649C11.2432 3.8594 9.11357 1.72973 6.48649 1.72973Z" fill="#FCFCFC"/>
</svg>
