<svg viewBox="0 0 22 13" fill="none" xmlns="http://www.w3.org/2000/svg">
<path d="M21.7999 5.81867C20.7565 4.45775 17.1047 0.375 11.162 0.375C5.21937 0.375 1.59025 4.45775 0.524197 5.81867C0.320059 6.06817 0.320059 6.43109 0.524197 6.6806C1.56757 8.04151 5.21937 12.1243 11.162 12.1243C17.1047 12.1243 20.7338 8.04151 21.7999 6.6806C21.9813 6.43109 21.9813 6.06817 21.7999 5.81867ZM11.162 10.6272C8.73507 10.6272 6.78443 8.6766 6.78443 6.24963C6.78443 3.82266 8.73507 1.87202 11.162 1.87202C13.589 1.87202 15.5397 3.82266 15.5397 6.24963C15.5397 8.6766 13.589 10.6272 11.162 10.6272Z" fill="#FCFCFC"/>
<path d="M11.168 9.06605C12.7214 9.06605 13.9806 7.80682 13.9806 6.25349C13.9806 4.70015 12.7214 3.44092 11.168 3.44092C9.6147 3.44092 8.35547 4.70015 8.35547 6.25349C8.35547 7.80682 9.6147 9.06605 11.168 9.06605Z" fill="#FCFCFC"/>
</svg>
